<svg xmlns="http://www.w3.org/2000/svg" viewBox="0 0 96 96" role="img" aria-labelledby="title">
  <title id="title">Tomt fat med kniv och gaffel</title>
  <g stroke="#F5F4ED" stroke-width="1.5" stroke-linecap="round" stroke-linejoin="round">
    <circle cx="48" cy="48" r="25.5" fill="none"></circle>
    <circle cx="48" cy="48" r="17.25" fill="#B4BFA6"></circle>

    <g transform="translate(-0.4 0)">
      <path d="M10.5 20v13.2c0 3.3 1.3 5.8 4.6 8.1v32c0 2.4 1 3.7 2.3 3.7s2.3-1.3 2.3-3.7v-32c3.3-2.3 4.6-4.8 4.6-8.1V20" fill="none"></path>
      <path d="M15.1 20v12.8M19.7 20v12.8" fill="none"></path>
    </g>

    <g transform="translate(-5.5 0)">
      <path d="M86.8 20.2c-3.6.5-5.8 4.4-5.8 9.6v23.1c0 2.7 1.1 4.7 3 5.7v14.7c0 2.4 1 3.7 2.3 3.7s2.3-1.3 2.3-3.7V20.2z" fill="none"></path>
      <path d="M81.2 53.8h7.2" fill="none"></path>
    </g>
  </g>
</svg>